0
SECTION
2
HEADER
9
$INSUNITS
70
4
9
$ACADVER
1
AC1014
9
$HANDSEED
5
FFFF
0
ENDSEC
0
SECTION
2
TABLES
0
TABLE
2
VPORT
5
8
100
AcDbSymbolTable
0
ENDTAB
0
TABLE
2
LTYPE
5
5
100
AcDbSymbolTable
0
LTYPE
5
14
100
AcDbSymbolTableRecord
100
AcDbLinetypeTableRecord
2
BYBLOCK
70
0
0
LTYPE
5
15
100
AcDbSymbolTableRecord
100
AcDbLinetypeTableRecord
2
BYLAYER
70
0
0
ENDTAB
0
TABLE
2
LAYER
5
2
100
AcDbSymbolTable
70
2
0
LAYER
5
50
100
AcDbSymbolTableRecord
100
AcDbLayerTableRecord
2
0
70
0
6
CONTINUOUS
0
ENDTAB
0
TABLE
2
STYLE
5
3
100
AcDbSymbolTable
70
1
0
STYLE
5
11
100
AcDbSymbolTableRecord
100
AcDbTextStyleTableRecord
2
STANDARD
70
0
0
ENDTAB
0
TABLE
2
VIEW
5
6
100
AcDbSymbolTable
70
0
0
ENDTAB
0
TABLE
2
UCS
5
7
100
AcDbSymbolTable
70
0
0
ENDTAB
0
TABLE
2
APPID
5
9
100
AcDbSymbolTable
70
2
0
APPID
5
12
100
AcDbSymbolTableRecord
100
AcDbRegAppTableRecord
2
ACAD
70
0
0
ENDTAB
0
TABLE
2
DIMSTYLE
5
A
100
AcDbSymbolTable
70
1
0
ENDTAB
0
TABLE
2
BLOCK_RECORD
5
1
100
AcDbSymbolTable
70
1
0
BLOCK_RECORD
5
1F
100
AcDbSymbolTableRecord
100
AcDbBlockTableRecord
2
*MODEL_SPACE
0
BLOCK_RECORD
5
1B
100
AcDbSymbolTableRecord
100
AcDbBlockTableRecord
2
*PAPER_SPACE
0
ENDTAB
0
ENDSEC
0
SECTION
2
BLOCKS
0
BLOCK
5
20
100
AcDbEntity
100
AcDbBlockBegin
2
*MODEL_SPACE
0
ENDBLK
5
21
100
AcDbEntity
100
AcDbBlockEnd
0
BLOCK
5
1C
100
AcDbEntity
100
AcDbBlockBegin
2
*PAPER_SPACE
0
ENDBLK
5
1D
100
AcDbEntity
100
AcDbBlockEnd
0
ENDSEC
0
SECTION
2
ENTITIES
0
CIRCLE
5
100
100
AcDbEntity
8
0
100
AcDbCircle
10
257.18117560848208
20
-8.8817841970012523e-15
30
0
40
9.75
210
0
220
-0
230
1
0
LWPOLYLINE
5
101
100
AcDbEntity
8
0
100
AcDbPolyline
90
6
70
1
43
0.0
10
241.52236135249717
20
19.999999999999993
10
224.50168368417084
20
9.9999999999999858
10
163.87990541926013
20
-25.000000000000007
10
257.18117560848208
20
-25.000000000000018
42
0.99999999999999989
10
257.18117560848208
20
25
10
239.28629337499734
20
24.999999999999957
42
-0.64823151951037117
0
LWPOLYLINE
5
102
100
AcDbEntity
8
0
100
AcDbPolyline
90
6
70
1
43
0.0
10
224.50168368417084
20
9.9999999999999858
10
163.87990541926013
20
-25.000000000000007
10
-242.81882439151789
20
-25.000000000000007
10
-242.81882439151792
20
24.999999999999993
10
239.28629337499734
20
24.999999999999936
42
-0.64823151951037861
10
241.52236135249717
20
19.999999999999993
0
LWPOLYLINE
5
103
100
AcDbEntity
8
0
100
AcDbPolyline
90
6
70
1
43
0.0
10
-227.81882439151789
20
19.999999999999993
10
165.54017482617115
20
19.999999999999993
10
165.54017482617112
20
10.000000084936239
10
164.68117482617114
20
10.000000084936239
10
-142.81882439151789
20
10.000000521540638
10
-227.81882439151789
20
10.000000521540638
0
LWPOLYLINE
5
104
100
AcDbEntity
8
0
100
AcDbPolyline
90
5
70
1
43
0.0
10
-227.81882439151789
20
-19.999999925494198
10
-227.81882439151789
20
-10.000000000000014
10
165.54015945946705
20
-9.9999999995274997
10
165.54015945710447
20
-19.999999998346215
10
-142.81882439151789
20
-19.999999925494201
0
CIRCLE
5
105
100
AcDbEntity
8
0
100
AcDbCircle
10
-182.81882439151789
20
-8.8817841970012523e-15
30
0
40
2.9999999999999716
210
0
220
-0
230
1
0
CIRCLE
5
106
100
AcDbEntity
8
0
100
AcDbCircle
10
-222.81882439151789
20
-8.8817841970012523e-15
30
0
40
2.9999999999999716
210
0
220
-0
230
1
0
CIRCLE
5
107
100
AcDbEntity
8
0
100
AcDbCircle
10
-162.81882439151789
20
-8.8817841970012523e-15
30
0
40
2.9999999999999716
210
0
220
-0
230
1
0
CIRCLE
5
108
100
AcDbEntity
8
0
100
AcDbCircle
10
-192.81882439151789
20
-8.8817841970012523e-15
30
0
40
2.9999999999999716
210
0
220
-0
230
1
0
CIRCLE
5
109
100
AcDbEntity
8
0
100
AcDbCircle
10
-152.81882439151789
20
-8.8817841970012523e-15
30
0
40
2.9999999999999716
210
0
220
-0
230
1
0
CIRCLE
5
110
100
AcDbEntity
8
0
100
AcDbCircle
10
-202.81882439151789
20
-8.8817841970012523e-15
30
0
40
2.9999999999999716
210
0
220
-0
230
1
0
CIRCLE
5
111
100
AcDbEntity
8
0
100
AcDbCircle
10
-142.81882439151789
20
-8.8817841970012523e-15
30
0
40
2.9999999999999716
210
0
220
-0
230
1
0
CIRCLE
5
112
100
AcDbEntity
8
0
100
AcDbCircle
10
-212.81882439151789
20
-8.8817841970012523e-15
30
0
40
2.9999999999999716
210
0
220
-0
230
1
0
CIRCLE
5
113
100
AcDbEntity
8
0
100
AcDbCircle
10
-172.81882439151789
20
-8.8817841970012523e-15
30
0
40
2.9999999999999716
210
0
220
-0
230
1
0
CIRCLE
5
114
100
AcDbEntity
8
0
100
AcDbCircle
10
157.18117560848211
20
-8.8817841970012523e-15
30
0
40
3.0000000000000071
210
-0
220
0
230
1
0
CIRCLE
5
115
100
AcDbEntity
8
0
100
AcDbCircle
10
107.18117560848212
20
-8.8817841970012523e-15
30
0
40
3.0000000000000071
210
-0
220
0
230
1
0
CIRCLE
5
116
100
AcDbEntity
8
0
100
AcDbCircle
10
67.181175608482121
20
-8.8817841970012523e-15
30
0
40
3.0000000000000071
210
-0
220
0
230
1
0
CIRCLE
5
117
100
AcDbEntity
8
0
100
AcDbCircle
10
27.1811756084821
20
-8.8817841970012523e-15
30
0
40
3.0000000000000071
210
-0
220
0
230
1
0
CIRCLE
5
118
100
AcDbEntity
8
0
100
AcDbCircle
10
-12.8188243915179
20
-8.8817841970012523e-15
30
0
40
3.0000000000000071
210
-0
220
0
230
1
0
CIRCLE
5
119
100
AcDbEntity
8
0
100
AcDbCircle
10
-52.8188243915179
20
-8.8817841970012523e-15
30
0
40
3.0000000000000426
210
-0
220
0
230
1
0
CIRCLE
5
120
100
AcDbEntity
8
0
100
AcDbCircle
10
-92.818824391517893
20
-8.8817841970012523e-15
30
0
40
3.0000000000000426
210
-0
220
0
230
1
0
CIRCLE
5
121
100
AcDbEntity
8
0
100
AcDbCircle
10
-132.81882439151789
20
-8.8817841970012523e-15
30
0
40
3.0000000000000426
210
-0
220
0
230
1
0
CIRCLE
5
122
100
AcDbEntity
8
0
100
AcDbCircle
10
-102.81882439151789
20
-8.8817841970012523e-15
30
0
40
3.0000000000000426
210
-0
220
0
230
1
0
CIRCLE
5
123
100
AcDbEntity
8
0
100
AcDbCircle
10
-62.8188243915179
20
-8.8817841970012523e-15
30
0
40
3.0000000000000426
210
-0
220
0
230
1
0
CIRCLE
5
124
100
AcDbEntity
8
0
100
AcDbCircle
10
-22.8188243915179
20
-8.8817841970012523e-15
30
0
40
3.0000000000000071
210
-0
220
0
230
1
0
CIRCLE
5
125
100
AcDbEntity
8
0
100
AcDbCircle
10
17.1811756084821
20
-8.8817841970012523e-15
30
0
40
3.0000000000000071
210
-0
220
0
230
1
0
CIRCLE
5
126
100
AcDbEntity
8
0
100
AcDbCircle
10
57.181175608482121
20
-8.8817841970012523e-15
30
0
40
3.0000000000000071
210
-0
220
0
230
1
0
CIRCLE
5
127
100
AcDbEntity
8
0
100
AcDbCircle
10
97.181175608482121
20
-8.8817841970012523e-15
30
0
40
3.0000000000000071
210
-0
220
0
230
1
0
CIRCLE
5
128
100
AcDbEntity
8
0
100
AcDbCircle
10
147.18117560848211
20
-8.8817841970012523e-15
30
0
40
3.0000000000000071
210
-0
220
0
230
1
0
CIRCLE
5
129
100
AcDbEntity
8
0
100
AcDbCircle
10
137.18117560848211
20
-8.8817841970012523e-15
30
0
40
3.0000000000000071
210
-0
220
0
230
1
0
CIRCLE
5
130
100
AcDbEntity
8
0
100
AcDbCircle
10
127.18117560848211
20
-8.8817841970012523e-15
30
0
40
3.0000000000000071
210
-0
220
0
230
1
0
CIRCLE
5
131
100
AcDbEntity
8
0
100
AcDbCircle
10
77.181175608482121
20
-8.8817841970012523e-15
30
0
40
3.0000000000000071
210
-0
220
0
230
1
0
CIRCLE
5
132
100
AcDbEntity
8
0
100
AcDbCircle
10
37.1811756084821
20
-8.8817841970012523e-15
30
0
40
3.0000000000000071
210
-0
220
0
230
1
0
CIRCLE
5
133
100
AcDbEntity
8
0
100
AcDbCircle
10
-2.8188243915179001
20
-8.8817841970012523e-15
30
0
40
3.0000000000000071
210
-0
220
0
230
1
0
CIRCLE
5
134
100
AcDbEntity
8
0
100
AcDbCircle
10
-42.8188243915179
20
-8.8817841970012523e-15
30
0
40
3.0000000000000426
210
-0
220
0
230
1
0
CIRCLE
5
135
100
AcDbEntity
8
0
100
AcDbCircle
10
-82.818824391517893
20
-8.8817841970012523e-15
30
0
40
3.0000000000000426
210
-0
220
0
230
1
0
CIRCLE
5
136
100
AcDbEntity
8
0
100
AcDbCircle
10
-122.81882439151789
20
-8.8817841970012523e-15
30
0
40
3.0000000000000426
210
-0
220
0
230
1
0
CIRCLE
5
137
100
AcDbEntity
8
0
100
AcDbCircle
10
-112.81882439151789
20
-8.8817841970012523e-15
30
0
40
3.0000000000000426
210
-0
220
0
230
1
0
CIRCLE
5
138
100
AcDbEntity
8
0
100
AcDbCircle
10
-72.818824391517893
20
-8.8817841970012523e-15
30
0
40
3.0000000000000426
210
-0
220
0
230
1
0
CIRCLE
5
139
100
AcDbEntity
8
0
100
AcDbCircle
10
-32.8188243915179
20
-8.8817841970012523e-15
30
0
40
3.0000000000000426
210
-0
220
0
230
1
0
CIRCLE
5
140
100
AcDbEntity
8
0
100
AcDbCircle
10
7.1811756084820999
20
-8.8817841970012523e-15
30
0
40
3.0000000000000071
210
-0
220
0
230
1
0
CIRCLE
5
141
100
AcDbEntity
8
0
100
AcDbCircle
10
47.1811756084821
20
-8.8817841970012523e-15
30
0
40
3.0000000000000071
210
-0
220
0
230
1
0
CIRCLE
5
142
100
AcDbEntity
8
0
100
AcDbCircle
10
87.181175608482121
20
-8.8817841970012523e-15
30
0
40
3.0000000000000071
210
-0
220
0
230
1
0
CIRCLE
5
143
100
AcDbEntity
8
0
100
AcDbCircle
10
117.18117560848211
20
-8.8817841970012523e-15
30
0
40
3.0000000000000071
210
-0
220
0
230
1
0
ENDSEC
0
SECTION
2
OBJECTS
0
DICTIONARY
5
C
100
AcDbDictionary
3
ACAD_GROUP
350
D
3
ACAD_MLINESTYLE
350
17
0
DICTIONARY
5
D
100
AcDbDictionary
0
DICTIONARY
5
1A
330
C
100
AcDbDictionary
0
DICTIONARY
5
17
100
AcDbDictionary
0
ENDSEC
0
EOF
