0
SECTION
2
HEADER
9
$INSUNITS
70
4
9
$ACADVER
1
AC1014
9
$HANDSEED
5
FFFF
0
ENDSEC
0
SECTION
2
TABLES
0
TABLE
2
VPORT
5
8
100
AcDbSymbolTable
0
ENDTAB
0
TABLE
2
LTYPE
5
5
100
AcDbSymbolTable
0
LTYPE
5
14
100
AcDbSymbolTableRecord
100
AcDbLinetypeTableRecord
2
BYBLOCK
70
0
0
LTYPE
5
15
100
AcDbSymbolTableRecord
100
AcDbLinetypeTableRecord
2
BYLAYER
70
0
0
ENDTAB
0
TABLE
2
LAYER
5
2
100
AcDbSymbolTable
70
2
0
LAYER
5
50
100
AcDbSymbolTableRecord
100
AcDbLayerTableRecord
2
0
70
0
6
CONTINUOUS
0
ENDTAB
0
TABLE
2
STYLE
5
3
100
AcDbSymbolTable
70
1
0
STYLE
5
11
100
AcDbSymbolTableRecord
100
AcDbTextStyleTableRecord
2
STANDARD
70
0
0
ENDTAB
0
TABLE
2
VIEW
5
6
100
AcDbSymbolTable
70
0
0
ENDTAB
0
TABLE
2
UCS
5
7
100
AcDbSymbolTable
70
0
0
ENDTAB
0
TABLE
2
APPID
5
9
100
AcDbSymbolTable
70
2
0
APPID
5
12
100
AcDbSymbolTableRecord
100
AcDbRegAppTableRecord
2
ACAD
70
0
0
ENDTAB
0
TABLE
2
DIMSTYLE
5
A
100
AcDbSymbolTable
70
1
0
ENDTAB
0
TABLE
2
BLOCK_RECORD
5
1
100
AcDbSymbolTable
70
1
0
BLOCK_RECORD
5
1F
100
AcDbSymbolTableRecord
100
AcDbBlockTableRecord
2
*MODEL_SPACE
0
BLOCK_RECORD
5
1B
100
AcDbSymbolTableRecord
100
AcDbBlockTableRecord
2
*PAPER_SPACE
0
ENDTAB
0
ENDSEC
0
SECTION
2
BLOCKS
0
BLOCK
5
20
100
AcDbEntity
100
AcDbBlockBegin
2
*MODEL_SPACE
0
ENDBLK
5
21
100
AcDbEntity
100
AcDbBlockEnd
0
BLOCK
5
1C
100
AcDbEntity
100
AcDbBlockBegin
2
*PAPER_SPACE
0
ENDBLK
5
1D
100
AcDbEntity
100
AcDbBlockEnd
0
ENDSEC
0
SECTION
2
ENTITIES
0
CIRCLE
5
100
100
AcDbEntity
8
0
100
AcDbCircle
10
232.49999999999989
20
-1.3322676295501878e-14
30
0
40
2.9999999999999716
210
0
220
-0
230
1
0
CIRCLE
5
101
100
AcDbEntity
8
0
100
AcDbCircle
10
222.49999999999989
20
-1.3322676295501878e-14
30
0
40
2.9999999999999716
210
0
220
-0
230
1
0
CIRCLE
5
102
100
AcDbEntity
8
0
100
AcDbCircle
10
172.49999999999989
20
-1.3322676295501878e-14
30
0
40
2.9999999999999716
210
0
220
-0
230
1
0
CIRCLE
5
103
100
AcDbEntity
8
0
100
AcDbCircle
10
212.49999999999989
20
-1.3322676295501878e-14
30
0
40
2.9999999999999716
210
0
220
-0
230
1
0
CIRCLE
5
104
100
AcDbEntity
8
0
100
AcDbCircle
10
162.49999999999989
20
-1.3322676295501878e-14
30
0
40
2.9999999999999716
210
0
220
-0
230
1
0
CIRCLE
5
105
100
AcDbEntity
8
0
100
AcDbCircle
10
192.49999999999989
20
-1.3322676295501878e-14
30
0
40
2.9999999999999716
210
0
220
-0
230
1
0
CIRCLE
5
106
100
AcDbEntity
8
0
100
AcDbCircle
10
202.49999999999989
20
-1.3322676295501878e-14
30
0
40
2.9999999999999716
210
0
220
-0
230
1
0
CIRCLE
5
107
100
AcDbEntity
8
0
100
AcDbCircle
10
182.49999999999989
20
-1.3322676295501878e-14
30
0
40
2.9999999999999716
210
0
220
-0
230
1
0
CIRCLE
5
108
100
AcDbEntity
8
0
100
AcDbCircle
10
-167.50000000000006
20
-1.7763568394002505e-14
30
0
40
3.000000000000008
210
0
220
-0
230
1
0
CIRCLE
5
109
100
AcDbEntity
8
0
100
AcDbCircle
10
-137.50000000000011
20
-1.7763568394002505e-14
30
0
40
3.000000000000008
210
0
220
-0
230
1
0
CIRCLE
5
110
100
AcDbEntity
8
0
100
AcDbCircle
10
-87.5
20
-2.2204460492503131e-14
30
0
40
3.000000000000008
210
0
220
-0
230
1
0
CIRCLE
5
111
100
AcDbEntity
8
0
100
AcDbCircle
10
-47.499999999999964
20
-1.3322676295501878e-14
30
0
40
3.000000000000008
210
0
220
-0
230
1
0
CIRCLE
5
112
100
AcDbEntity
8
0
100
AcDbCircle
10
-7.4999999999998934
20
-2.2204460492503131e-14
30
0
40
3.000000000000008
210
0
220
-0
230
1
0
CIRCLE
5
113
100
AcDbEntity
8
0
100
AcDbCircle
10
32.500000000000036
20
-3.1086244689504383e-14
30
0
40
3.000000000000008
210
0
220
-0
230
1
0
CIRCLE
5
114
100
AcDbEntity
8
0
100
AcDbCircle
10
72.500000000000114
20
-3.1086244689504383e-14
30
0
40
3.0000000000000444
210
0
220
-0
230
1
0
CIRCLE
5
115
100
AcDbEntity
8
0
100
AcDbCircle
10
112.50000000000011
20
-4.8849813083506888e-14
30
0
40
3.0000000000000444
210
0
220
-0
230
1
0
CIRCLE
5
116
100
AcDbEntity
8
0
100
AcDbCircle
10
152.49999999999997
20
-6.6613381477509392e-14
30
0
40
3.0000000000000444
210
0
220
-0
230
1
0
CIRCLE
5
117
100
AcDbEntity
8
0
100
AcDbCircle
10
122.50000000000011
20
-3.1086244689504383e-14
30
0
40
3.0000000000000444
210
0
220
-0
230
1
0
CIRCLE
5
118
100
AcDbEntity
8
0
100
AcDbCircle
10
82.500000000000114
20
-4.8849813083506888e-14
30
0
40
3.0000000000000444
210
0
220
-0
230
1
0
CIRCLE
5
119
100
AcDbEntity
8
0
100
AcDbCircle
10
42.500000000000107
20
-4.8849813083506888e-14
30
0
40
3.000000000000008
210
0
220
-0
230
1
0
CIRCLE
5
120
100
AcDbEntity
8
0
100
AcDbCircle
10
2.4999999999998934
20
4.4408920985006262e-15
30
0
40
3.000000000000008
210
0
220
-0
230
1
0
CIRCLE
5
121
100
AcDbEntity
8
0
100
AcDbCircle
10
-37.499999999999964
20
-2.2204460492503131e-14
30
0
40
3.000000000000008
210
0
220
-0
230
1
0
CIRCLE
5
122
100
AcDbEntity
8
0
100
AcDbCircle
10
-77.500000000000028
20
-1.3322676295501878e-14
30
0
40
3.000000000000008
210
0
220
-0
230
1
0
CIRCLE
5
123
100
AcDbEntity
8
0
100
AcDbCircle
10
-127.50000000000003
20
-8.8817841970012523e-15
30
0
40
3.000000000000008
210
0
220
-0
230
1
0
CIRCLE
5
124
100
AcDbEntity
8
0
100
AcDbCircle
10
-157.50000000000003
20
-4.8849813083506888e-14
30
0
40
3.000000000000008
210
0
220
-0
230
1
0
CIRCLE
5
125
100
AcDbEntity
8
0
100
AcDbCircle
10
-117.50000000000003
20
-5.773159728050814e-14
30
0
40
3.000000000000008
210
0
220
-0
230
1
0
CIRCLE
5
126
100
AcDbEntity
8
0
100
AcDbCircle
10
-107.5
20
-4.4408920985006262e-14
30
0
40
3.000000000000008
210
0
220
-0
230
1
0
CIRCLE
5
127
100
AcDbEntity
8
0
100
AcDbCircle
10
-57.5
20
-2.2204460492503131e-14
30
0
40
3.000000000000008
210
0
220
-0
230
1
0
CIRCLE
5
128
100
AcDbEntity
8
0
100
AcDbCircle
10
-17.499999999999893
20
-1.3322676295501878e-14
30
0
40
3.000000000000008
210
0
220
-0
230
1
0
CIRCLE
5
129
100
AcDbEntity
8
0
100
AcDbCircle
10
22.500000000000107
20
-3.1086244689504383e-14
30
0
40
3.000000000000008
210
0
220
-0
230
1
0
CIRCLE
5
130
100
AcDbEntity
8
0
100
AcDbCircle
10
62.500000000000107
20
-6.6613381477509392e-14
30
0
40
3.0000000000000444
210
0
220
-0
230
1
0
CIRCLE
5
131
100
AcDbEntity
8
0
100
AcDbCircle
10
102.50000000000011
20
-3.1086244689504383e-14
30
0
40
3.0000000000000444
210
0
220
-0
230
1
0
CIRCLE
5
132
100
AcDbEntity
8
0
100
AcDbCircle
10
142.50000000000011
20
-6.6613381477509392e-14
30
0
40
3.0000000000000444
210
0
220
-0
230
1
0
CIRCLE
5
133
100
AcDbEntity
8
0
100
AcDbCircle
10
132.50000000000011
20
-4.8849813083506888e-14
30
0
40
3.0000000000000444
210
0
220
-0
230
1
0
CIRCLE
5
134
100
AcDbEntity
8
0
100
AcDbCircle
10
92.499999999999886
20
-1.3322676295501878e-14
30
0
40
3.0000000000000444
210
0
220
-0
230
1
0
CIRCLE
5
135
100
AcDbEntity
8
0
100
AcDbCircle
10
52.500000000000107
20
-4.8849813083506888e-14
30
0
40
3.0000000000000444
210
0
220
-0
230
1
0
CIRCLE
5
136
100
AcDbEntity
8
0
100
AcDbCircle
10
12.500000000000107
20
-1.3322676295501878e-14
30
0
40
3.000000000000008
210
0
220
-0
230
1
0
CIRCLE
5
137
100
AcDbEntity
8
0
100
AcDbCircle
10
-27.499999999999893
20
-2.2204460492503131e-14
30
0
40
3.000000000000008
210
0
220
-0
230
1
0
CIRCLE
5
138
100
AcDbEntity
8
0
100
AcDbCircle
10
-67.5
20
-5.773159728050814e-14
30
0
40
3.000000000000008
210
0
220
-0
230
1
0
CIRCLE
5
139
100
AcDbEntity
8
0
100
AcDbCircle
10
-97.5
20
-3.9968028886505635e-14
30
0
40
3.000000000000008
210
0
220
-0
230
1
0
CIRCLE
5
140
100
AcDbEntity
8
0
100
AcDbCircle
10
-147.50000000000003
20
-5.3290705182007514e-14
30
0
40
3.000000000000008
210
0
220
-0
230
1
0
CIRCLE
5
141
100
AcDbEntity
8
0
100
AcDbCircle
10
-237.50000000000011
20
-1.3322676295501878e-14
30
0
40
9.7500000000000036
210
0
220
-0
230
1
0
LWPOLYLINE
5
142
100
AcDbEntity
8
0
100
AcDbPolyline
90
4
70
1
43
0.0
10
242.50000000000017
20
-10.000000000000018
10
242.50000000000017
20
-20.000000000000018
10
-177.53120972523544
20
-20.000000000000018
10
-177.53120972523539
20
-10.000000000000018
0
LWPOLYLINE
5
143
100
AcDbEntity
8
0
100
AcDbPolyline
90
4
70
1
43
0.0
10
242.50000000000017
20
19.999999999999986
10
242.50000000000017
20
9.9999999999999822
10
-177.53120972523544
20
9.9999999999999822
10
-177.53120972523539
20
19.999999999999986
0
LWPOLYLINE
5
144
100
AcDbEntity
8
0
100
AcDbPolyline
90
4
70
1
43
0.0
10
262.50000000000011
20
-25.000000000000036
10
262.50000000000017
20
25.000000000000028
10
-237.50000000000011
20
24.999999999999996
42
0.99999999999999989
10
-237.50000000000011
20
-25.000000000000036
0
ENDSEC
0
SECTION
2
OBJECTS
0
DICTIONARY
5
C
100
AcDbDictionary
3
ACAD_GROUP
350
D
3
ACAD_MLINESTYLE
350
17
0
DICTIONARY
5
D
100
AcDbDictionary
0
DICTIONARY
5
1A
330
C
100
AcDbDictionary
0
DICTIONARY
5
17
100
AcDbDictionary
0
ENDSEC
0
EOF
