0
SECTION
2
HEADER
9
$INSUNITS
70
4
9
$ACADVER
1
AC1014
9
$HANDSEED
5
FFFF
0
ENDSEC
0
SECTION
2
TABLES
0
TABLE
2
VPORT
5
8
100
AcDbSymbolTable
0
ENDTAB
0
TABLE
2
LTYPE
5
5
100
AcDbSymbolTable
0
LTYPE
5
14
100
AcDbSymbolTableRecord
100
AcDbLinetypeTableRecord
2
BYBLOCK
70
0
0
LTYPE
5
15
100
AcDbSymbolTableRecord
100
AcDbLinetypeTableRecord
2
BYLAYER
70
0
0
ENDTAB
0
TABLE
2
LAYER
5
2
100
AcDbSymbolTable
70
2
0
LAYER
5
50
100
AcDbSymbolTableRecord
100
AcDbLayerTableRecord
2
0
70
0
6
CONTINUOUS
0
ENDTAB
0
TABLE
2
STYLE
5
3
100
AcDbSymbolTable
70
1
0
STYLE
5
11
100
AcDbSymbolTableRecord
100
AcDbTextStyleTableRecord
2
STANDARD
70
0
0
ENDTAB
0
TABLE
2
VIEW
5
6
100
AcDbSymbolTable
70
0
0
ENDTAB
0
TABLE
2
UCS
5
7
100
AcDbSymbolTable
70
0
0
ENDTAB
0
TABLE
2
APPID
5
9
100
AcDbSymbolTable
70
2
0
APPID
5
12
100
AcDbSymbolTableRecord
100
AcDbRegAppTableRecord
2
ACAD
70
0
0
ENDTAB
0
TABLE
2
DIMSTYLE
5
A
100
AcDbSymbolTable
70
1
0
ENDTAB
0
TABLE
2
BLOCK_RECORD
5
1
100
AcDbSymbolTable
70
1
0
BLOCK_RECORD
5
1F
100
AcDbSymbolTableRecord
100
AcDbBlockTableRecord
2
*MODEL_SPACE
0
BLOCK_RECORD
5
1B
100
AcDbSymbolTableRecord
100
AcDbBlockTableRecord
2
*PAPER_SPACE
0
ENDTAB
0
ENDSEC
0
SECTION
2
BLOCKS
0
BLOCK
5
20
100
AcDbEntity
100
AcDbBlockBegin
2
*MODEL_SPACE
0
ENDBLK
5
21
100
AcDbEntity
100
AcDbBlockEnd
0
BLOCK
5
1C
100
AcDbEntity
100
AcDbBlockBegin
2
*PAPER_SPACE
0
ENDBLK
5
1D
100
AcDbEntity
100
AcDbBlockEnd
0
ENDSEC
0
SECTION
2
ENTITIES
0
CIRCLE
5
100
100
AcDbEntity
8
0
100
AcDbCircle
10
-189.76818026281336
20
-8.8817841970012523e-15
30
0
40
3.000000000000008
210
-0
220
0
230
1
0
CIRCLE
5
101
100
AcDbEntity
8
0
100
AcDbCircle
10
-159.76818026281342
20
-8.8817841970012523e-15
30
0
40
3.000000000000008
210
-0
220
0
230
1
0
CIRCLE
5
102
100
AcDbEntity
8
0
100
AcDbCircle
10
-109.76818026281333
20
-1.3322676295501878e-14
30
0
40
3.000000000000008
210
-0
220
0
230
1
0
CIRCLE
5
103
100
AcDbEntity
8
0
100
AcDbCircle
10
-69.768180262813289
20
-4.4408920985006262e-15
30
0
40
3.000000000000008
210
-0
220
0
230
1
0
CIRCLE
5
104
100
AcDbEntity
8
0
100
AcDbCircle
10
-29.768180262813217
20
-1.3322676295501878e-14
30
0
40
3.000000000000008
210
-0
220
0
230
1
0
CIRCLE
5
105
100
AcDbEntity
8
0
100
AcDbCircle
10
10.231819737186711
20
-2.2204460492503131e-14
30
0
40
3.000000000000008
210
-0
220
0
230
1
0
CIRCLE
5
106
100
AcDbEntity
8
0
100
AcDbCircle
10
50.231819737186783
20
-2.2204460492503131e-14
30
0
40
3.0000000000000444
210
-0
220
0
230
1
0
CIRCLE
5
107
100
AcDbEntity
8
0
100
AcDbCircle
10
90.231819737186783
20
-3.9968028886505635e-14
30
0
40
3.0000000000000444
210
-0
220
0
230
1
0
CIRCLE
5
108
100
AcDbEntity
8
0
100
AcDbCircle
10
130.23181973718664
20
-5.773159728050814e-14
30
0
40
3.0000000000000444
210
-0
220
0
230
1
0
CIRCLE
5
109
100
AcDbEntity
8
0
100
AcDbCircle
10
100.23181973718678
20
-2.2204460492503131e-14
30
0
40
3.0000000000000444
210
-0
220
0
230
1
0
CIRCLE
5
110
100
AcDbEntity
8
0
100
AcDbCircle
10
60.231819737186783
20
-3.9968028886505635e-14
30
0
40
3.0000000000000444
210
-0
220
0
230
1
0
CIRCLE
5
111
100
AcDbEntity
8
0
100
AcDbCircle
10
20.231819737186783
20
-3.9968028886505635e-14
30
0
40
3.000000000000008
210
-0
220
0
230
1
0
CIRCLE
5
112
100
AcDbEntity
8
0
100
AcDbCircle
10
-19.768180262813431
20
1.3322676295501878e-14
30
0
40
3.000000000000008
210
-0
220
0
230
1
0
CIRCLE
5
113
100
AcDbEntity
8
0
100
AcDbCircle
10
-59.768180262813289
20
-1.3322676295501878e-14
30
0
40
3.000000000000008
210
-0
220
0
230
1
0
CIRCLE
5
114
100
AcDbEntity
8
0
100
AcDbCircle
10
-99.76818026281336
20
-4.4408920985006262e-15
30
0
40
3.000000000000008
210
-0
220
0
230
1
0
CIRCLE
5
115
100
AcDbEntity
8
0
100
AcDbCircle
10
-149.76818026281336
20
0
30
0
40
3.000000000000008
210
-0
220
0
230
1
0
CIRCLE
5
116
100
AcDbEntity
8
0
100
AcDbCircle
10
-179.76818026281336
20
-3.9968028886505635e-14
30
0
40
3.000000000000008
210
-0
220
0
230
1
0
CIRCLE
5
117
100
AcDbEntity
8
0
100
AcDbCircle
10
-139.76818026281336
20
-4.8849813083506888e-14
30
0
40
3.000000000000008
210
-0
220
0
230
1
0
CIRCLE
5
118
100
AcDbEntity
8
0
100
AcDbCircle
10
-129.76818026281333
20
-3.5527136788005009e-14
30
0
40
3.000000000000008
210
-0
220
0
230
1
0
CIRCLE
5
119
100
AcDbEntity
8
0
100
AcDbCircle
10
-79.768180262813331
20
-1.3322676295501878e-14
30
0
40
3.000000000000008
210
-0
220
0
230
1
0
CIRCLE
5
120
100
AcDbEntity
8
0
100
AcDbCircle
10
-39.768180262813217
20
-4.4408920985006262e-15
30
0
40
3.000000000000008
210
-0
220
0
230
1
0
CIRCLE
5
121
100
AcDbEntity
8
0
100
AcDbCircle
10
0.2318197371867825
20
-2.2204460492503131e-14
30
0
40
3.000000000000008
210
-0
220
0
230
1
0
CIRCLE
5
122
100
AcDbEntity
8
0
100
AcDbCircle
10
40.231819737186783
20
-5.773159728050814e-14
30
0
40
3.0000000000000444
210
-0
220
0
230
1
0
CIRCLE
5
123
100
AcDbEntity
8
0
100
AcDbCircle
10
80.231819737186783
20
-2.2204460492503131e-14
30
0
40
3.0000000000000444
210
-0
220
0
230
1
0
CIRCLE
5
124
100
AcDbEntity
8
0
100
AcDbCircle
10
120.23181973718678
20
-5.773159728050814e-14
30
0
40
3.0000000000000444
210
-0
220
0
230
1
0
CIRCLE
5
125
100
AcDbEntity
8
0
100
AcDbCircle
10
110.23181973718678
20
-3.9968028886505635e-14
30
0
40
3.0000000000000444
210
-0
220
0
230
1
0
CIRCLE
5
126
100
AcDbEntity
8
0
100
AcDbCircle
10
70.231819737186569
20
-4.4408920985006262e-15
30
0
40
3.0000000000000444
210
-0
220
0
230
1
0
CIRCLE
5
127
100
AcDbEntity
8
0
100
AcDbCircle
10
30.231819737186783
20
-3.9968028886505635e-14
30
0
40
3.0000000000000444
210
-0
220
0
230
1
0
CIRCLE
5
128
100
AcDbEntity
8
0
100
AcDbCircle
10
-9.7681802628132175
20
-4.4408920985006262e-15
30
0
40
3.000000000000008
210
-0
220
0
230
1
0
CIRCLE
5
129
100
AcDbEntity
8
0
100
AcDbCircle
10
-49.768180262813217
20
-1.3322676295501878e-14
30
0
40
3.000000000000008
210
-0
220
0
230
1
0
CIRCLE
5
130
100
AcDbEntity
8
0
100
AcDbCircle
10
-89.768180262813331
20
-4.8849813083506888e-14
30
0
40
3.000000000000008
210
-0
220
0
230
1
0
CIRCLE
5
131
100
AcDbEntity
8
0
100
AcDbCircle
10
-119.76818026281333
20
-3.1086244689504383e-14
30
0
40
3.000000000000008
210
-0
220
0
230
1
0
CIRCLE
5
132
100
AcDbEntity
8
0
100
AcDbCircle
10
-169.76818026281336
20
-4.4408920985006262e-14
30
0
40
3.000000000000008
210
-0
220
0
230
1
0
CIRCLE
5
133
100
AcDbEntity
8
0
100
AcDbCircle
10
160.23181973718658
20
-4.4408920985006262e-15
30
0
40
2.9999999999999716
210
-0
220
0
230
1
0
CIRCLE
5
134
100
AcDbEntity
8
0
100
AcDbCircle
10
180.23181973718658
20
-4.4408920985006262e-15
30
0
40
2.9999999999999716
210
-0
220
0
230
1
0
CIRCLE
5
135
100
AcDbEntity
8
0
100
AcDbCircle
10
170.23181973718658
20
-4.4408920985006262e-15
30
0
40
2.9999999999999716
210
-0
220
0
230
1
0
CIRCLE
5
136
100
AcDbEntity
8
0
100
AcDbCircle
10
140.23181973718658
20
-4.4408920985006262e-15
30
0
40
2.9999999999999716
210
-0
220
0
230
1
0
CIRCLE
5
137
100
AcDbEntity
8
0
100
AcDbCircle
10
190.23181973718658
20
-4.4408920985006262e-15
30
0
40
2.9999999999999716
210
-0
220
0
230
1
0
CIRCLE
5
138
100
AcDbEntity
8
0
100
AcDbCircle
10
150.23181973718658
20
-4.4408920985006262e-15
30
0
40
2.9999999999999716
210
-0
220
0
230
1
0
CIRCLE
5
139
100
AcDbEntity
8
0
100
AcDbCircle
10
200.23181973718658
20
-4.4408920985006262e-15
30
0
40
2.9999999999999716
210
-0
220
0
230
1
0
CIRCLE
5
140
100
AcDbEntity
8
0
100
AcDbCircle
10
210.23181973718658
20
-4.4408920985006262e-15
30
0
40
2.9999999999999716
210
-0
220
0
230
1
0
LWPOLYLINE
5
141
100
AcDbEntity
8
0
100
AcDbPolyline
90
14
70
1
43
0.0
10
-234.40919641419097
20
24.999999999999996
10
240.2318197371869
20
25.000000000000032
10
240.23181973718678
20
-25.000000000000032
10
-166.46691007359138
20
-25.000000000000036
10
-175.12716411143586
20
-20.000000000000007
10
-199.79938998804874
20
-20.000000000000007
10
-199.79938998804874
20
-10.000000000000011
10
-192.44767218712468
20
-10.000000000000009
10
-236.90919641419097
20
15.669872981077788
42
-0.76732698797896526
10
-234.40919641419097
20
24.999999999999996
10
-259.76818026281342
20
25.000000000000018
42
0.99999999999999989
10
-259.76818026281342
20
-25.00000000000005
10
-166.46691007359138
20
-25.000000000000036
10
-236.90919641419097
20
15.669872981077788
42
-0.76732698797896526
0
CIRCLE
5
142
100
AcDbEntity
8
0
100
AcDbCircle
10
-259.76818026281342
20
-4.4408920985006262e-15
30
0
40
9.7500000000000036
210
0
220
0
230
1
0
ENDSEC
0
SECTION
2
OBJECTS
0
DICTIONARY
5
C
100
AcDbDictionary
3
ACAD_GROUP
350
D
3
ACAD_MLINESTYLE
350
17
0
DICTIONARY
5
D
100
AcDbDictionary
0
DICTIONARY
5
1A
330
C
100
AcDbDictionary
0
DICTIONARY
5
17
100
AcDbDictionary
0
ENDSEC
0
EOF
